<svg width="50" height="50" viewBox="0 0 50 50" fill="none" xmlns="http://www.w3.org/2000/svg">
<g id="design-thinking 1" clip-path="url(#clip0_1302_376)">
<g id="Group">
<path id="Vector" d="M38.2812 37.499C39.5734 37.499 40.625 36.4475 40.625 35.1553C40.625 33.8631 39.5734 32.8115 38.2812 32.8115C36.9891 32.8115 35.9375 33.8631 35.9375 35.1553C35.9375 36.4475 36.9891 37.499 38.2812 37.499ZM38.2812 34.374C38.7117 34.374 39.0625 34.724 39.0625 35.1553C39.0625 35.5865 38.7117 35.9365 38.2812 35.9365C37.8508 35.9365 37.5 35.5865 37.5 35.1553C37.5 34.724 37.8508 34.374 38.2812 34.374Z" fill="black"/>
<path id="Vector_2" d="M46.2188 31.8568C45.982 31.2896 46.1078 30.6451 46.5383 30.2139L47.675 29.0764L44.3594 25.7607L43.2211 26.8982C42.7906 27.3295 42.1453 27.4545 41.5484 27.2045C40.9875 26.9732 40.625 26.4311 40.625 25.8232V24.2178H39.0227C38.9516 22.9576 38.718 21.7396 38.3305 20.5857L47.3711 11.5451C48.5625 10.3537 49.2188 8.77012 49.2188 7.08574C49.2188 3.60918 46.3898 0.780273 42.9133 0.780273C41.2289 0.780273 39.6453 1.43652 38.4547 2.62715L29.4234 11.6592C28.2555 11.267 27.0172 11.0389 25.7383 10.9709C24.6602 9.0873 22.6344 7.81152 20.3125 7.81152C19.718 7.81152 19.1445 7.90059 18.5984 8.05605C17.25 5.5209 14.6305 3.90527 11.7188 3.90527C7.41094 3.90527 3.90625 7.40996 3.90625 11.7178C3.90625 12.3162 3.97969 12.9053 4.11328 13.4818C2.1875 14.0646 0.78125 15.8545 0.78125 17.9678C0.78125 20.5529 2.88359 22.6553 5.46875 22.6553H11.1359C11.0062 23.4279 10.9375 24.2123 10.9375 24.999C10.9375 26.7186 11.2555 28.1178 11.7688 29.3131L4.79922 36.2834L0.921094 46.3662C0.828125 46.6068 0.78125 46.86 0.78125 47.1186C0.78125 48.2764 1.72344 49.2178 2.88047 49.2178C3.13906 49.2178 3.39219 49.1701 3.63359 49.0779L13.7164 45.1998L18.8125 40.1029C18.7742 40.2709 18.75 40.4443 18.75 40.624C18.75 41.2264 18.9852 41.7709 19.3594 42.1865C18.9844 42.6021 18.75 43.1467 18.75 43.749C18.75 44.835 19.4961 45.7428 20.5 46.0068C21.1656 47.9131 22.9484 49.2178 25 49.2178C27.0516 49.2178 28.8344 47.9131 29.5 46.0068C30.5039 45.7428 31.25 44.835 31.25 43.749C31.25 43.6904 31.2367 43.6357 31.2328 43.5787L32.2031 44.549L33.3414 43.4115C33.7719 42.9803 34.4148 42.8545 35.0133 43.1037C35.5742 43.3373 35.9375 43.8795 35.9375 44.4873V46.0928H40.625V44.4873C40.625 43.8795 40.9883 43.3365 41.5797 43.092C42.1469 42.8561 42.7914 42.9803 43.2219 43.4115L44.3594 44.549L47.675 41.2334L46.5383 40.0959C46.1078 39.6646 45.982 39.0201 46.2313 38.4232C46.4633 37.8623 47.0055 37.499 47.6133 37.499H49.2188V32.8115H47.6133C47.0055 32.8115 46.4633 32.4482 46.2188 31.8568ZM34.5125 34.16C35.3648 33.3279 36.2188 32.4779 36.9555 31.4951C37.3805 31.3404 37.8227 31.249 38.2812 31.249C40.4352 31.249 42.1875 33.0014 42.1875 35.1553C42.1875 37.3092 40.4352 39.0615 38.2812 39.0615C36.1273 39.0615 34.375 37.3092 34.375 35.1553C34.375 34.817 34.4273 34.4842 34.5125 34.16ZM35.4508 15.6537L39.0625 12.0412L41.8641 14.8428L37.6914 19.0154C37.1063 17.7873 36.35 16.6576 35.4508 15.6537ZM36.2609 7.03027L37.5 5.79121L44.2078 12.499L42.9688 13.7381L36.2609 7.03027ZM42.9133 2.34277C45.5281 2.34277 47.6562 4.4709 47.6562 7.08574C47.6562 8.35215 47.1633 9.54356 46.2672 10.4396L45.3125 11.3943L38.6047 4.68652L39.5594 3.73184C40.4555 2.83652 41.6461 2.34277 42.9133 2.34277ZM35.1562 8.13496L37.9578 10.9365L34.3477 14.5467C33.3445 13.6467 32.2156 12.8896 30.9875 12.3037L35.1562 8.13496ZM37.5 24.999C37.5 29.0639 35.4531 31.0607 33.2859 33.174C31.7937 34.6295 30.2609 36.1342 29.3687 38.3271C29.2195 38.2967 29.0648 38.2803 28.9062 38.2803H25.7812V34.374C25.7812 33.0818 24.7297 32.0303 23.4375 32.0303H21.875C21.4445 32.0303 21.0938 31.6803 21.0938 31.249C21.0938 30.8178 21.4445 30.4678 21.875 30.4678H29.6875C30.9797 30.4678 32.0312 29.4162 32.0312 28.124C32.0312 26.8318 30.9797 25.7803 29.6875 25.7803H23.4375C23.007 25.7803 22.6562 25.4303 22.6562 24.999V22.6553H26.5625C28.7164 22.6553 30.4688 20.9029 30.4688 18.749C30.4688 16.5951 28.7164 14.8428 26.5625 14.8428C26.5406 14.8428 26.5203 14.849 26.4984 14.849C26.532 14.5881 26.5625 14.3271 26.5625 14.0615C26.5625 13.5506 26.4937 13.0561 26.3781 12.5803C32.6063 13.274 37.5 18.6193 37.5 24.999ZM20.3125 40.624C20.3125 40.1928 20.6633 39.8428 21.0938 39.8428H28.9062C29.3367 39.8428 29.6875 40.1928 29.6875 40.624C29.6875 41.0553 29.3367 41.4053 28.9062 41.4053H21.0938C20.6633 41.4053 20.3125 41.0553 20.3125 40.624ZM10.4797 40.624L16.2227 34.8811C17.1836 35.8342 18.0758 36.7982 18.7336 37.9725L13.2812 43.4256L10.4797 40.624ZM2.34375 17.9678C2.34375 16.2443 3.74531 14.8428 5.46875 14.8428C7.19219 14.8428 8.59375 16.2443 8.59375 17.9678H10.1562C10.1562 15.4506 8.16016 13.3959 5.66875 13.2904C5.53594 12.7795 5.46875 12.2521 5.46875 11.7178C5.46875 8.27168 8.27266 5.46777 11.7188 5.46777C14.0039 5.46777 16.0664 6.70996 17.1633 8.67168C15.4977 9.64902 14.3211 11.3701 14.1016 13.3787C12.7375 13.7146 11.7188 14.9389 11.7188 16.4053H13.2812C13.2812 15.5436 13.982 14.8428 14.8438 14.8428C15.7055 14.8428 16.4062 15.5436 16.4062 16.4053H17.9688C17.9688 14.9717 16.9937 13.774 15.6758 13.4068C15.9961 11.1318 17.95 9.37402 20.3125 9.37402C22.8977 9.37402 25 11.4764 25 14.0615C25 14.4725 24.9328 14.8748 24.8281 15.267C23.5469 15.9084 22.6562 17.2209 22.6562 18.749H24.2188C24.2188 17.4568 25.2703 16.4053 26.5625 16.4053C27.8547 16.4053 28.9062 17.4568 28.9062 18.749C28.9062 20.0412 27.8547 21.0928 26.5625 21.0928H5.46875C3.74531 21.0928 2.34375 19.6912 2.34375 17.9678ZM21.0938 22.6553V24.999C21.0938 26.2912 22.1453 27.3428 23.4375 27.3428H29.6875C30.118 27.3428 30.4688 27.6928 30.4688 28.124C30.4688 28.5553 30.118 28.9053 29.6875 28.9053H21.875C20.5828 28.9053 19.5312 29.9568 19.5312 31.249C19.5312 32.5412 20.5828 33.5928 21.875 33.5928H23.4375C23.868 33.5928 24.2188 33.9428 24.2188 34.374V38.2803H21.0938C20.9352 38.2803 20.7805 38.2967 20.6313 38.3271C19.7391 36.1342 18.2062 34.6295 16.7141 33.174C14.5469 31.0607 12.5 29.0639 12.5 24.999C12.5 24.2092 12.5945 23.4264 12.7406 22.6553H21.0938ZM15.107 33.7873L9.375 39.5193L6.57344 36.7178L12.5344 30.7568C13.268 31.9084 14.1773 32.8693 15.107 33.7873ZM5.76641 38.1201L11.8789 44.2326L6.70391 46.2232L3.77578 43.2951L5.76641 38.1201ZM3.07344 47.6193C2.73516 47.7506 2.34375 47.4811 2.34375 47.1186C2.34375 47.0521 2.35625 46.9873 2.37891 46.9264L3.16172 44.8904L5.10781 46.8365L3.07344 47.6193ZM25 47.6553C23.8461 47.6553 22.8172 47.0412 22.2469 46.0928H27.7531C27.1828 47.0412 26.1539 47.6553 25 47.6553ZM28.9062 44.5303H21.0938C20.6633 44.5303 20.3125 44.1803 20.3125 43.749C20.3125 43.3178 20.6633 42.9678 21.0938 42.9678H28.9062C29.3367 42.9678 29.6875 43.3178 29.6875 43.749C29.6875 44.1803 29.3367 44.5303 28.9062 44.5303ZM47.6562 35.9365H47.6133C46.3703 35.9365 45.2609 36.6787 44.7766 37.8521C44.2953 39.0061 44.5531 40.3201 45.4328 41.2006L45.4656 41.2334L44.3594 42.3396L44.3266 42.3068C43.4453 41.4256 42.1297 41.167 40.9523 41.6607C39.8047 42.1357 39.0625 43.2443 39.0625 44.4873V44.5303H37.5V44.4873C37.5 43.2443 36.7578 42.135 35.5844 41.6498C34.4289 41.1678 33.1148 41.4264 32.2352 42.3068L32.2023 42.3396L31.1437 41.2811C31.2062 41.0709 31.25 40.8537 31.25 40.624C31.25 40.0693 31.0484 39.5662 30.725 39.1639C31.2109 37.8521 31.9727 36.8029 32.8594 35.8342C33.1953 38.5295 35.4961 40.624 38.2812 40.624C41.2969 40.624 43.75 38.1701 43.75 35.1553C43.75 32.1404 41.2969 29.6865 38.2812 29.6865C38.2047 29.6865 38.1305 29.6943 38.0547 29.6975C38.5836 28.5998 38.9469 27.3271 39.0383 25.7803H39.0625V25.8232C39.0625 27.0662 39.8047 28.1764 40.9773 28.66C42.1305 29.1428 43.4461 28.885 44.3266 28.0037L44.3594 27.9709L45.4656 29.0771L45.4328 29.11C44.5531 29.9904 44.2953 31.3053 44.7867 32.4834C45.2609 33.6318 46.3703 34.374 47.6133 34.374H47.6562V35.9365Z" fill="black"/>
</g>
</g>
<defs>
<clipPath id="clip0_1302_376">
<rect width="50" height="50" fill="white" transform="translate(0 -0.000976562)"/>
</clipPath>
</defs>
</svg>
