<svg width="50" height="50" viewBox="0 0 50 50" fill="none" xmlns="http://www.w3.org/2000/svg">
<g clip-path="url(#clip0_1302_366)">
<path d="M47.5 -0.000976562H17.5C16.1193 -0.000976562 15 1.11829 15 2.49902V20.8324H4.16667C2.78594 20.8324 1.66667 21.9516 1.66667 23.3324V39.999H0.833333C0.373125 39.999 0 40.3722 0 40.8324C0.00270833 43.1324 1.86667 44.9963 4.16667 44.999H30.8333C33.1322 45.0013 34.9977 43.1395 35 40.8407C35 40.8379 35 40.8352 35 40.8324C35 40.3722 34.6269 39.999 34.1667 39.999H33.3333V30.8324H42.5C42.9602 30.8324 43.3333 30.4592 43.3333 29.999C43.3333 29.5388 42.9602 29.1657 42.5 29.1657H38.1283L36.9383 24.999H47.5C48.8807 24.999 50 23.8798 50 22.499V2.49902C50 1.11829 48.8807 -0.000976562 47.5 -0.000976562ZM32.6067 42.5974C32.1359 43.0672 31.4983 43.3314 30.8333 43.3324H4.16667C3.1075 43.3311 2.16365 42.6638 1.80917 41.6657H14.1667C14.1667 42.1259 14.5398 42.499 15 42.499H20C20.4602 42.499 20.8333 42.1259 20.8333 41.6657H33.1908C33.0667 42.0153 32.8672 42.3333 32.6067 42.5974ZM20 39.999C19.5398 39.999 19.1667 40.3722 19.1667 40.8324H15.8333C15.8333 40.3722 15.4602 39.999 15 39.999H3.33333V23.3324C3.33333 22.8722 3.70646 22.499 4.16667 22.499H30.8333C31.2935 22.499 31.6667 22.8722 31.6667 23.3324V39.999H20ZM36.395 29.1657H33.3333V24.999H35.205L36.395 29.1657ZM48.3333 22.499C48.3333 22.9592 47.9602 23.3324 47.5 23.3324H33.3333C33.3333 21.9516 32.2141 20.8324 30.8333 20.8324H16.6667V2.49902C16.6667 2.03882 17.0398 1.66569 17.5 1.66569H47.5C47.9602 1.66569 48.3333 2.03882 48.3333 2.49902V22.499Z" fill="black"/>
<path d="M45.8346 31.665H39.168C37.7872 31.665 36.668 32.7843 36.668 34.165V47.4984C36.668 48.8791 37.7872 49.9984 39.168 49.9984H45.8346C47.2154 49.9984 48.3346 48.8791 48.3346 47.4984V34.165C48.3346 32.7843 47.2154 31.665 45.8346 31.665ZM46.668 47.4984C46.668 47.9586 46.2948 48.3317 45.8346 48.3317H39.168C38.7078 48.3317 38.3346 47.9586 38.3346 47.4984V34.165C38.3346 33.7048 38.7078 33.3317 39.168 33.3317H45.8346C46.2948 33.3317 46.668 33.7048 46.668 34.165V47.4984Z" fill="black"/>
</g>
<defs>
<clipPath id="clip0_1302_366">
<rect width="50" height="50" fill="white" transform="translate(0 -0.000976562)"/>
</clipPath>
</defs>
</svg>
