<svg width="50" height="50" viewBox="0 0 50 50" fill="none" xmlns="http://www.w3.org/2000/svg">
<path d="M24.9978 38.2854C24.8334 38.2854 24.6691 38.2431 24.5216 38.1584C19.5319 35.2934 19.0617 32.0704 19.0911 30.8177C19.1266 29.3053 19.8736 28.0298 21.0893 27.4059C22.2533 26.8084 23.6511 26.8938 24.9978 27.6267C26.3445 26.8938 27.7422 26.8083 28.9064 27.4059C30.122 28.0298 30.869 29.3053 30.9046 30.8177C30.934 32.0705 30.4638 35.2934 25.474 38.1584C25.3265 38.2431 25.1621 38.2854 24.9978 38.2854ZM22.7485 28.926C22.4647 28.926 22.1995 28.9859 21.9626 29.1075C21.3806 29.4062 21.0219 30.0624 21.0032 30.8626C20.9612 32.651 22.4446 34.6265 24.9978 36.2152C27.5511 34.6266 29.0345 32.651 28.9924 30.8626C28.9737 30.0624 28.615 29.4062 28.0329 29.1075C27.3557 28.7598 26.4458 28.9164 25.5369 29.5367C25.2117 29.7585 24.7838 29.7585 24.4587 29.5367C23.8676 29.1333 23.276 28.926 22.7485 28.926Z" fill="black"/>
<path d="M44.1242 7.78457C44.6523 7.78457 45.0805 7.35644 45.0805 6.82832C45.0805 6.3002 44.6523 5.87207 44.1242 5.87207C43.5961 5.87207 43.168 6.3002 43.168 6.82832C43.168 7.35644 43.5961 7.78457 44.1242 7.78457Z" fill="black"/>
<path d="M43.1673 26.9115C43.6954 26.9115 44.1236 26.4834 44.1236 25.9553C44.1236 25.4272 43.6954 24.999 43.1673 24.999C42.6392 24.999 42.2111 25.4272 42.2111 25.9553C42.2111 26.4834 42.6392 26.9115 43.1673 26.9115Z" fill="black"/>
<path d="M4.91719 17.3471C5.44531 17.3471 5.87344 16.9189 5.87344 16.3908C5.87344 15.8627 5.44531 15.4346 4.91719 15.4346C4.38907 15.4346 3.96094 15.8627 3.96094 16.3908C3.96094 16.9189 4.38907 17.3471 4.91719 17.3471Z" fill="black"/>
<path d="M6.82734 37.4311C7.35547 37.4311 7.78359 37.0029 7.78359 36.4748C7.78359 35.9467 7.35547 35.5186 6.82734 35.5186C6.29922 35.5186 5.87109 35.9467 5.87109 36.4748C5.87109 37.0029 6.29922 37.4311 6.82734 37.4311Z" fill="black"/>
<path d="M35.515 47.9498H14.4768C11.8402 47.9498 9.69531 45.8049 9.69531 43.1684V6.8293C9.69531 4.19277 11.8402 2.04785 14.4768 2.04785H35.5151C38.1517 2.04785 40.2966 4.19277 40.2966 6.8293V43.1683C40.2965 45.8049 38.1516 47.9498 35.515 47.9498ZM14.4768 3.96045C12.8948 3.96045 11.6079 5.24746 11.6079 6.8293V43.1683C11.6079 44.7502 12.8949 46.0371 14.4768 46.0371H35.5151C37.0971 46.0371 38.384 44.7501 38.384 43.1683V6.8293C38.384 5.24736 37.097 3.96045 35.5151 3.96045H14.4768Z" fill="black"/>
<path d="M33.1272 12.568H16.8704C15.0249 12.568 13.5234 11.0665 13.5234 9.221C13.5234 7.37549 15.0249 5.87402 16.8704 5.87402H33.1273C34.9729 5.87402 36.4743 7.37549 36.4743 9.221C36.4743 11.0665 34.9728 12.568 33.1272 12.568ZM16.8704 7.78652C16.0795 7.78652 15.4359 8.42998 15.4359 9.221C15.4359 10.012 16.0794 10.6555 16.8704 10.6555H33.1273C33.9184 10.6555 34.5618 10.012 34.5618 9.221C34.5618 8.42998 33.9184 7.78652 33.1273 7.78652H16.8704Z" fill="black"/>
<path d="M24.9996 43.1683C19.1993 43.1683 14.4805 38.4494 14.4805 32.6491C14.4805 26.8488 19.1993 22.1299 24.9996 22.1299C30.7999 22.1299 35.5188 26.8487 35.5188 32.649C35.5188 38.4493 30.7999 43.1683 24.9996 43.1683ZM24.9996 24.0425C20.2539 24.0425 16.393 27.9034 16.393 32.6491C16.393 37.3948 20.2539 41.2558 24.9996 41.2558C29.7453 41.2558 33.6062 37.3948 33.6062 32.6491C33.6062 27.9034 29.7453 24.0425 24.9996 24.0425Z" fill="black"/>
<path d="M34.5625 16.392H15.4367C14.9086 16.392 14.4805 15.9639 14.4805 15.4357C14.4805 14.9076 14.9086 14.4795 15.4367 14.4795H34.5625C35.0906 14.4795 35.5188 14.9076 35.5188 15.4357C35.5188 15.9639 35.0906 16.392 34.5625 16.392Z" fill="black"/>
<path d="M34.5586 20.2182H15.4328C14.9047 20.2182 14.4766 19.79 14.4766 19.2619C14.4766 18.7338 14.9047 18.3057 15.4328 18.3057H34.5586C35.0867 18.3057 35.5148 18.7338 35.5148 19.2619C35.5148 19.79 35.0867 20.2182 34.5586 20.2182Z" fill="black"/>
<path d="M4.91572 11.6098C3.33379 11.6098 2.04688 10.3228 2.04688 8.74092C2.04688 7.15908 3.33379 5.87207 4.91572 5.87207C6.49766 5.87207 7.78457 7.15908 7.78457 8.74092C7.78457 10.3228 6.49756 11.6098 4.91572 11.6098ZM4.91572 7.78467C4.38838 7.78467 3.95947 8.21367 3.95947 8.74092C3.95947 9.26816 4.38848 9.69717 4.91572 9.69717C5.44297 9.69717 5.87197 9.26816 5.87197 8.74092C5.87197 8.21367 5.44297 7.78467 4.91572 7.78467Z" fill="black"/>
<path d="M45.0798 45.0805C43.4979 45.0805 42.2109 43.7935 42.2109 42.2116C42.2109 40.6297 43.4979 39.3428 45.0798 39.3428C46.6616 39.3428 47.9486 40.6298 47.9486 42.2116C47.9486 43.7935 46.6616 45.0805 45.0798 45.0805ZM45.0798 41.2553C44.5525 41.2553 44.1235 41.6843 44.1235 42.2115C44.1235 42.7388 44.5525 43.1678 45.0798 43.1678C45.607 43.1678 46.036 42.7388 46.036 42.2115C46.036 41.6843 45.607 41.2553 45.0798 41.2553Z" fill="black"/>
</svg>
