<svg width="50" height="50" viewBox="0 0 50 50" fill="none" xmlns="http://www.w3.org/2000/svg">
<g clip-path="url(#clip0_1302_320)">
<path d="M43.0685 20.6673H42.9447V17.6352C42.9447 7.895 35.0488 -0.000976562 25.3086 -0.000976562C15.5683 -0.000976562 7.67243 7.895 7.67243 17.6352V20.6673H6.9299C4.2071 20.6673 2.10317 23.0806 2.10317 25.8654V33.6005C2.03459 36.2995 4.16706 38.5431 6.86606 38.6117C6.88738 38.6122 6.90858 38.6126 6.9299 38.6128H11.5091C12.1577 38.5824 12.6588 38.0318 12.6283 37.3832C12.6272 37.3598 12.6254 37.3365 12.6229 37.3133V22.1524C12.6229 21.4099 12.1898 20.6672 11.5091 20.6672H10.1477V17.635C10.1477 9.26197 16.9355 2.47416 25.3086 2.47416C33.6816 2.47416 40.4694 9.26197 40.4694 17.635V20.6672H39.108C38.4273 20.6672 37.9942 21.4097 37.9942 22.1524V37.3133C37.9251 37.9589 38.3925 38.5383 39.0382 38.6074C39.0614 38.6099 39.0847 38.6117 39.108 38.6127H40.5313L40.4075 38.7983C38.5506 41.2661 35.6369 42.7115 32.5486 42.6968C31.8725 39.3817 28.6368 37.2422 25.3217 37.9184C22.4867 38.4965 20.4427 40.9794 20.4199 43.8726C20.4538 47.266 23.2145 49.999 26.608 49.9988C28.2879 49.9715 29.8892 49.2822 31.0634 48.0805C31.8557 47.2691 32.3748 46.2307 32.5486 45.1101C36.416 45.1248 40.0633 43.3126 42.3876 40.2216L43.5634 38.4888C46.2243 38.3032 47.8951 36.6325 47.8951 34.219V26.4839C47.8952 23.8233 45.915 20.6673 43.0685 20.6673ZM10.1477 36.1376H6.9299C5.5974 36.1051 4.54348 34.9987 4.57593 33.6662C4.57653 33.6443 4.57736 33.6224 4.57842 33.6004V25.8653C4.57842 24.442 5.5685 23.1425 6.9299 23.1425H10.1477V36.1376ZM29.269 46.348C28.5832 47.0916 27.6196 47.5174 26.6081 47.5238C24.5948 47.4918 22.961 45.8852 22.8953 43.8727C22.8944 41.8563 24.5284 40.2211 26.5448 40.2203C28.5612 40.2194 30.1964 41.8534 30.1972 43.8698C30.1972 43.8707 30.1972 43.8718 30.1972 43.8727C30.2488 44.7915 29.9119 45.6897 29.269 46.348ZM45.4199 34.2193C45.4199 35.89 43.811 36.1376 43.0685 36.1376H40.4694V23.1426H43.0685C44.4299 23.1426 45.4199 25.0609 45.4199 26.4841V34.2193Z" fill="black"/>
</g>
<defs>
<clipPath id="clip0_1302_320">
<rect width="50" height="50" fill="white" transform="translate(0 -0.000976562)"/>
</clipPath>
</defs>
</svg>
