<svg width="50" height="50" viewBox="0 0 50 50" fill="none" xmlns="http://www.w3.org/2000/svg">
<g id="update 1" clip-path="url(#clip0_1302_307)">
<path id="Vector" d="M16.6666 11.9039H14.2853V2.38026H4.76172V-0.000976562H16.6666V11.9039Z" fill="black"/>
<path id="Vector_2" d="M25 49.9976C11.2205 49.9976 0.000104595 38.7776 0.000104595 24.9977C-0.0195137 18.2359 2.72139 11.7592 7.58936 7.0665L14.6581 0.325195L16.2947 2.05161L9.24122 8.77766C4.83974 13.0235 2.36215 18.882 2.38134 24.9977C2.38134 37.468 12.5301 47.6168 25 47.6168V49.9976Z" fill="black"/>
<path id="Vector_3" d="M45.2369 49.9991H33.332V38.0947H35.7128V47.6184H45.2369V49.9991Z" fill="black"/>
<path id="Vector_4" d="M35.3422 49.6714L33.7052 47.9454L40.7587 41.2194C45.1601 36.9731 47.6382 31.1146 47.619 24.9989C47.619 12.5291 37.4702 2.38026 24.9999 2.38026V-0.000976562C38.7798 -0.000976562 49.9998 11.2194 49.9998 24.9989C50.0198 31.7607 47.2785 38.2374 42.4105 42.9305L35.3422 49.6714Z" fill="black"/>
<path id="Vector_5" d="M23.7935 33.8243L11.5469 21.5777L13.2284 19.8962L23.7935 30.4613L39.1508 15.1045L40.8323 16.786L23.7935 33.8243Z" fill="black"/>
</g>
<defs>
<clipPath id="clip0_1302_307">
<rect width="50" height="50" fill="white" transform="translate(0 -0.000976562)"/>
</clipPath>
</defs>
</svg>
