<svg width="50" height="50" viewBox="0 0 50 50" fill="none" xmlns="http://www.w3.org/2000/svg">
<g clip-path="url(#clip0_1302_288)">
<path d="M31.9433 13.1762C32.3477 13.1762 32.6754 12.8483 32.6754 12.444C32.6754 12.0396 32.3476 11.7119 31.9433 11.7119H18.0563C17.652 11.7119 17.3242 12.0397 17.3242 12.444C17.3242 12.8484 17.6521 13.1762 18.0563 13.1762H31.9433Z" fill="black"/>
<path d="M13.332 19.5512V21.4561C13.332 22.3539 14.0625 23.0844 14.9604 23.0844H35.0358C35.9337 23.0844 36.6642 22.3539 36.6642 21.4561V19.5512C36.6642 18.6533 35.9337 17.9229 35.0358 17.9229H14.9604C14.0625 17.9229 13.332 18.6533 13.332 19.5512ZM35.1997 19.5512V21.4561C35.1997 21.5465 35.1262 21.62 35.0357 21.62H14.9604C14.8699 21.62 14.7964 21.5465 14.7964 21.4561V19.5512C14.7964 19.4607 14.8699 19.3872 14.9604 19.3872H35.0358C35.1262 19.3872 35.1997 19.4607 35.1997 19.5512Z" fill="black"/>
<path d="M13.332 29.7411C13.332 30.639 14.0625 31.3694 14.9604 31.3694H35.0358C35.9337 31.3694 36.6642 30.639 36.6642 29.7411V27.8363C36.6642 26.9385 35.9337 26.208 35.0358 26.208H14.9604C14.0625 26.208 13.332 26.9385 13.332 27.8363V29.7411ZM14.7964 27.8363C14.7964 27.7459 14.8699 27.6724 14.9604 27.6724H35.0358C35.1263 27.6724 35.1998 27.7459 35.1998 27.8363V29.7411C35.1998 29.8315 35.1263 29.9051 35.0358 29.9051H14.9604C14.8699 29.9051 14.7964 29.8315 14.7964 29.7411V27.8363Z" fill="black"/>
<path d="M26.7022 35.0225H23.2962C21.9116 35.0225 20.7852 36.1489 20.7852 37.5335V37.633C20.7852 39.0176 21.9116 40.144 23.2962 40.144H26.7022C28.0868 40.144 29.2133 39.0176 29.2133 37.633V37.5335C29.2133 36.1489 28.0868 35.0225 26.7022 35.0225ZM27.7489 37.6331C27.7489 38.2103 27.2794 38.6798 26.7022 38.6798H23.2962C22.719 38.6798 22.2495 38.2103 22.2495 37.6331V37.5336C22.2495 36.9564 22.719 36.4869 23.2962 36.4869H26.7022C27.2794 36.4869 27.7489 36.9564 27.7489 37.5336V37.6331Z" fill="black"/>
<path d="M28.4808 44.8671H9.64326C8.8919 44.8671 8.28066 44.2558 8.28066 43.5045V13.9069C8.28066 13.5025 7.95283 13.1748 7.54854 13.1748C7.14414 13.1748 6.81641 13.5026 6.81641 13.9069V43.5045C6.81641 45.0633 8.08457 46.3314 9.64336 46.3314H28.4809C28.8853 46.3314 29.213 46.0036 29.213 45.5993C29.213 45.195 28.8852 44.8671 28.4808 44.8671Z" fill="black"/>
<path d="M41.1611 0.133573C40.2119 -0.149337 40.4961 0.118241 9.64336 0.0163854C8.08467 0.0163854 6.81641 1.28455 6.81641 2.84334V10.9792C6.81641 11.3836 7.14424 11.7113 7.54854 11.7113C7.95293 11.7113 8.28066 11.3835 8.28066 10.9792V8.88172H41.7173V43.5054C41.7173 44.0544 41.3905 44.5473 40.8848 44.7612C40.1522 45.071 40.3756 46.1679 41.1703 46.1679C41.7896 46.1679 43.1816 45.1469 43.1816 43.5053V2.84334C43.1816 1.56277 42.3264 0.480839 41.1611 0.133573ZM41.7173 7.41736H8.28076V2.84334C8.28076 2.16014 8.7876 1.58748 9.45303 1.49392C9.63232 1.46873 7.97188 1.48543 40.3547 1.48064C41.1074 1.48064 41.7173 2.09344 41.7173 2.84324V7.41736Z" fill="black"/>
<path d="M12.1971 2.20801C10.9619 2.20801 9.95703 3.21279 9.95703 4.44795C9.95703 5.68311 10.9619 6.68799 12.1971 6.68799C13.4322 6.68799 14.437 5.68311 14.437 4.44795C14.437 3.21279 13.4321 2.20801 12.1971 2.20801ZM12.1971 5.22363C11.7694 5.22363 11.4214 4.87568 11.4214 4.44795C11.4214 4.02021 11.7693 3.67236 12.1971 3.67236C12.6247 3.67236 12.9727 4.02031 12.9727 4.44795C12.9727 4.87559 12.6247 5.22363 12.1971 5.22363Z" fill="black"/>
<path d="M18.0563 2.20996C16.8212 2.20996 15.8164 3.21475 15.8164 4.4499C15.8164 5.68506 16.8212 6.68994 18.0563 6.68994C19.2915 6.68994 20.2964 5.68506 20.2964 4.4499C20.2964 3.21475 19.2915 2.20996 18.0563 2.20996ZM18.0563 5.22559C17.6287 5.22559 17.2808 4.87764 17.2808 4.4499C17.2808 4.02217 17.6287 3.67432 18.0563 3.67432C18.484 3.67432 18.832 4.02227 18.832 4.4499C18.832 4.87754 18.4841 5.22559 18.0563 5.22559Z" fill="black"/>
<path d="M23.9158 2.20801C22.6807 2.20801 21.6758 3.21279 21.6758 4.44795C21.6758 5.68311 22.6807 6.68799 23.9158 6.68799C25.151 6.68799 26.1558 5.68311 26.1558 4.44795C26.1558 3.21279 25.151 2.20801 23.9158 2.20801ZM23.9158 5.22363C23.4882 5.22363 23.1401 4.87568 23.1401 4.44795C23.1401 4.02021 23.4881 3.67236 23.9158 3.67236C24.3435 3.67236 24.6914 4.02031 24.6914 4.44795C24.6914 4.87559 24.3436 5.22363 23.9158 5.22363Z" fill="black"/>
<path d="M40.8119 42.4866C40.8119 42.0354 40.5785 41.6312 40.1877 41.4056L32.5913 37.0198C32.2005 36.7942 31.7338 36.7942 31.343 37.0198C30.9521 37.2455 30.7188 37.6496 30.7188 38.101V46.8725C30.7188 47.3238 30.9521 47.728 31.343 47.9536C31.7339 48.1793 32.2005 48.1793 32.5913 47.9536L34.4354 46.8889L35.8532 49.3445C36.0957 49.7643 36.537 49.9992 36.9901 49.9992C37.2123 49.9992 37.4373 49.9428 37.6431 49.824L39.2816 48.8779C39.9073 48.5166 40.1225 47.7137 39.7612 47.088L38.3435 44.6324L40.1876 43.5677C40.5786 43.3422 40.8119 42.938 40.8119 42.4866ZM37.4987 43.4295C37.19 43.6077 36.9693 43.8954 36.8771 44.2397C36.7848 44.5839 36.8321 44.9435 37.0104 45.2522L38.4161 47.6869L37.0443 48.4789L35.6386 46.0441C35.3917 45.6165 34.9424 45.3773 34.481 45.3773C34.2548 45.3773 34.0256 45.4348 33.8161 45.5558L32.1832 46.4985V38.475L39.1317 42.4867L37.4987 43.4295Z" fill="black"/>
</g>
<defs>
<clipPath id="clip0_1302_288">
<rect width="50" height="50" fill="white" transform="translate(0 -0.000976562)"/>
</clipPath>
</defs>
</svg>
