<?xml version="1.0" encoding="UTF-8"?>
<svg id="Capa_2" data-name="Capa 2" xmlns="http://www.w3.org/2000/svg" viewBox="0 0 428.59 619.6">
  <defs>
    <style>
      .cls-1, .cls-2 {
        fill: #fff;
      }

      .cls-2, .cls-3 {
        stroke: #000;
        stroke-miterlimit: 10;
        stroke-width: 2px;
      }

      .cls-3 {
        fill: #acacac;
      }
    </style>
  </defs>
  <g id="Capa_1-2" data-name="Capa 1">
    <g>
      <polygon class="cls-2" points="67.81 62.65 131.59 99.79 131.59 617.58 2.14 537.46 2.14 450.15 67.15 485.3 67.81 62.65"/>
      <polygon class="cls-3" points="2.14 450.15 67.25 416.44 67.15 485.3 2.14 450.15"/>
      <polygon class="cls-3" points="131.59 617.58 186.96 586.59 186.63 69.31 131.4 99.51 131.59 617.58"/>
      <polygon class="cls-2" points="186.86 69.74 244.19 102.48 244.19 617.91 186.58 586.21 186.86 69.74"/>
      <polyline class="cls-2" points="244.19 360.15 366.08 296.73 363.53 237.2 243.34 101.99"/>
      <polyline class="cls-2" points="244.19 360.15 364.38 495.36 366.93 554.89 244.19 617.91"/>
      <polygon class="cls-3" points="363.53 237.2 425.61 205.73 307.5 72.51 243.72 102.55 363.53 237.2"/>
      <polygon class="cls-3" points="364.38 495.15 426.46 463.69 308.35 330.46 244.19 360.15 364.38 495.15"/>
      <polygon class="cls-3" points="244.19 102.48 307.97 72.43 173.07 1.14 67.62 62.37 131.4 99.51 186.67 69.46 244.19 102.48"/>
      <polygon class="cls-3" points="366.08 296.73 427.03 266.04 426.15 205.66 363.53 237.2 366.08 296.73"/>
      <polygon class="cls-3" points="427.03 266.04 308.33 330.74 245.14 361.1 366.08 296.73 427.03 266.04"/>
      <polygon class="cls-3" points="426.63 522.69 307.93 587.39 244.19 617.91 366.13 554.2 426.63 522.69"/>
      <polygon class="cls-3" points="366.93 554.99 427.59 523.24 427.59 463.43 364.85 495.08 366.93 554.99"/>
      <polygon class="cls-3" points="366.18 554.51 426.84 522.77 426.84 462.95 364.1 494.61 366.18 554.51"/>
      <polyline class="cls-3" points="243.18 180.83 243.17 289.72 309.2 256.21 243.15 181.28"/>
      <polyline class="cls-3" points="243.17 433.67 243.17 542.08 309.04 508.89 243.18 435.05"/>
      <polygon class="cls-1" points="244.44 290.21 243.03 290.87 242.52 361.59 244.89 363.22 244.44 290.21"/>
      <polygon class="cls-1" points="244.27 104.69 242.53 102.72 241.95 180.36 244.69 181.38 244.27 104.69"/>
      <path class="cls-1" d="M243.7,358.33l-.05,.16v.37s.77,.81,.77,.81l-.03,1.12,.58,74.07s-.3,.33-.35,.28c-.15-.14-1.65-1.75-1.65-1.75l-.72-74.78,1.45-.3Z"/>
      <polygon class="cls-1" points="244.3 542.63 242.88 543.32 242.94 616.06 244.25 616.8 245.07 616.32 246.96 543.64 244.3 542.63"/>
    </g>
  </g>
</svg>